<svg xmlns="http://www.w3.org/2000/svg" width="1200" height="600" version="1"><path fill="#090" d="M0 0h1200v600H0z"/><path fill="#bf0000" d="M0 0h1200v400H0z"/><path d="M0 0h1200v200H0z"/><g fill-rule="evenodd" stroke="#000" stroke-width="2" stroke-linecap="round" stroke-linejoin="round"><path d="M329.418 262.182c41.155 7.523 80.457 32.556 106.03 64.287a234.605 234.605 0 0 0-14.074 12.371c.895-.853 1.788-1.701 2.72-2.562-23.21-28.692-60.706-52.64-97.39-59.346l2.714-14.75z"/><path d="M324.02 291.685c32.537 5.948 68.61 29.28 89.32 55.228a195.844 195.844 0 0 0-10.006 11.566c-17.807-23.409-53.259-46.785-82.03-52.044l2.715-14.75z" fill="#090"/><path d="M326.703 276.932c36.685 6.706 74.182 30.654 97.392 59.346-3.909 3.607-7.481 7.139-10.755 10.635-20.71-25.948-56.783-49.28-89.32-55.228l2.683-14.753z" fill="#bf0000"/><g><path d="M239.666 262.182c-41.154 7.523-80.457 32.556-106.03 64.287a234.605 234.605 0 0 1 14.075 12.371 233.096 233.096 0 0 0-2.721-2.562c23.21-28.692 60.706-52.64 97.391-59.346l-2.715-14.75z"/><path d="M245.065 291.685c-32.538 5.948-68.61 29.28-89.32 55.228a195.844 195.844 0 0 1 10.006 11.566c17.807-23.409 53.258-46.785 82.029-52.044l-2.715-14.75z" fill="#090"/><path d="M242.381 276.932c-36.685 6.706-74.181 30.654-97.391 59.346 3.908 3.607 7.48 7.139 10.754 10.635 20.711-25.948 56.783-49.28 89.321-55.228l-2.684-14.753z" fill="#bf0000"/></g></g><g stroke-width="2" stroke-linecap="round" stroke-linejoin="round"><g fill="none" stroke="#ffd600"><path d="M401.659 101.41c-15.019-19.006-29.964-35.773-46.204-48.872M408.042 100.953c-14.691-19.262-29.347-36.282-45.36-49.658M414.22 99.86c-14.535-19.38-29.052-36.519-44.955-50.025M419.973 99.984c-14.05-19.735-28.138-37.228-43.702-51.123M429.934 100.785c-12.879-20.517-25.926-38.8-40.656-53.576M425.256 100.118c-13.532-20.093-27.16-37.946-42.359-52.242"/></g><g fill="none" stroke="#ffd600"><path d="M416.619 217.11c4.345-23.832 7.057-46.129 6.161-66.974M421.18 221.598c4.753-23.754 7.847-46 7.309-66.858M426.081 225.513c4.946-23.714 8.22-45.934 7.852-66.796M429.79 229.914c5.531-23.584 9.355-45.717 9.503-66.581M435.769 237.921c6.893-23.223 11.997-45.096 13.358-65.916M433.18 233.968c6.142-23.433 10.54-45.458 11.23-66.311"/></g><g fill="#ffd600" fill-rule="evenodd" stroke="#000"><path d="M430.732 137.008c-1.782-.505-3.79-8.265-2.7-12.997 1.145-4.973 6.555-10.811 8.534-9.8 1.768.902 4.255 6.688 2.904 12.368-1.297 5.455-6.077 11.183-8.738 10.43z"/><path d="M425.804 120.803c-1.8-.442-4.077-8.128-3.153-12.895.97-5.01 6.173-11.034 8.186-10.093 1.798.84 4.487 6.536 3.335 12.26-1.106 5.496-5.682 11.387-8.368 10.728z"/><path d="M418.963 107.21c-1.813-.378-4.362-7.978-3.608-12.775.793-5.041 5.779-11.245 7.824-10.377 1.827.776 4.715 6.373 3.767 12.134-.91 5.532-5.275 11.582-7.983 11.018z"/><path d="M411.985 94.967c-1.802-.205-5.017-7.427-4.745-12.201.286-5.017 4.542-11.559 6.617-10.894 1.854.594 5.206 5.82 4.838 11.558-.353 5.51-4.019 11.843-6.71 11.537zM404.984 83.49c-1.29 1.089-8.233-1.342-11.292-4.572-3.216-3.394-4.928-10.448-3.154-11.43 1.586-.876 7.266.189 10.916 4.098 3.506 3.754 5.455 10.276 3.53 11.903zM434.883 152.2c-1.738-.64-3.145-8.532-1.695-13.167 1.524-4.87 7.365-10.276 9.26-9.117 1.694 1.036 3.73 6.996 1.948 12.556-1.713 5.339-6.917 10.683-9.513 9.728z"/><path d="M436.276 165.989c-1.582-.964-1.437-8.98.882-13.246 2.436-4.484 9.212-8.658 10.848-7.155 1.462 1.344 2.307 7.585-.517 12.695-2.712 4.908-8.851 9.145-11.213 7.706zM429.33 137.522c1.034-1.537-2.445-8.759-6.333-11.668-4.086-3.056-11.986-4.02-12.845-1.97-.767 1.83 1.071 7.855 5.77 11.319 4.514 3.326 11.862 4.613 13.408 2.319z"/><path d="M432.726 153.063c1.134-1.466-1.864-8.9-5.554-12.058-3.877-3.318-11.697-4.797-12.688-2.809-.885 1.777.554 7.91 5.016 11.674 4.286 3.615 11.534 5.38 13.226 3.193z"/><path d="M432.18 166.656c1.134-1.22-.942-8.154-3.986-11.305-3.198-3.312-10.075-5.308-11.124-3.606-.937 1.52-.15 7.152 3.536 10.915 3.54 3.613 9.881 5.817 11.574 3.996zM423.801 121.563c.843-1.551-3.108-8.097-7.058-10.51-4.152-2.537-11.733-2.745-12.363-.723-.563 1.807 1.724 7.363 6.494 10.23 4.581 2.755 11.668 3.32 12.927 1.003z"/><path d="M416.862 106.937c.606-1.495-3.653-7.036-7.488-8.824-4.03-1.88-10.932-1.292-11.296.61-.325 1.699 2.322 6.51 6.947 8.627 4.442 2.033 10.932 1.82 11.837-.413z"/><path d="M410.496 95.797c.763-1.503-3.18-7.646-7.015-9.845-4.029-2.31-11.268-2.308-11.816-.36-.489 1.739 1.84 6.98 6.469 9.591 4.444 2.508 11.221 2.858 12.362.614z"/></g><g fill="none" stroke="#ffd600"><path d="M411.791 278.981c13.78-19.923 25.44-39.12 33.213-58.483M414.097 284.95c14.12-19.684 26.106-38.679 34.211-57.905M416.95 290.538c14.279-19.57 26.42-38.466 34.68-57.626M418.515 296.075c14.76-19.209 27.364-37.799 36.097-56.748M420.664 305.835c15.85-18.319 29.514-36.145 39.334-54.554M419.933 301.166c15.254-18.819 28.337-37.075 37.56-55.791"/></g><g fill="#ffd600" fill-rule="evenodd" stroke="#000"><path d="M397.837 308.523c-.227-1.839 6.146-6.702 10.93-7.534 5.028-.874 12.508 1.846 12.345 4.061-.146 1.98-4.513 6.519-10.272 7.478-5.53.921-12.665-1.26-13.003-4.005z"/><path d="M410.86 297.69c-.292-1.829 5.907-6.911 10.66-7.91 4.993-1.05 12.564 1.407 12.478 3.627-.076 1.983-4.282 6.672-10.004 7.832-5.495 1.114-12.7-.817-13.135-3.548z"/><path d="M420.731 286.11c-.355-1.817 5.66-7.116 10.373-8.283 4.954-1.226 12.607.96 12.6 3.183-.006 1.985-4.043 6.82-9.72 8.181-5.452 1.309-12.722-.366-13.253-3.08z"/><path d="M429.306 274.928c-.511-1.74 4.897-7.506 9.403-9.109 4.735-1.683 12.415-.3 12.607 1.87.172 1.939-3.343 7.057-8.773 8.945-5.216 1.813-12.475.893-13.237-1.706zM437.166 264.02c-1.504-.765-1.96-8.107-.17-12.18 1.88-4.281 7.717-8.598 9.31-7.343 1.423 1.122 2.646 6.769.46 11.65-2.098 4.689-7.353 9.016-9.6 7.873zM385.448 318.245c-.085-1.85 6.642-6.21 11.476-6.673 5.08-.486 12.329 2.8 11.996 4.996-.296 1.963-5 6.153-10.815 6.668-5.585.494-12.53-2.228-12.657-4.991z"/><path d="M373.28 324.88c.274-1.832 7.718-4.809 12.55-4.328 5.078.505 11.555 5.13 10.804 7.22-.67 1.87-6.095 5.071-11.9 4.452-5.575-.595-11.863-4.608-11.454-7.344z"/><path d="M361.193 327.071c.921-1.607 8.937-1.674 13.264.53 4.547 2.318 8.9 8.98 7.44 10.656-1.304 1.496-7.521 2.507-12.704-.18-4.978-2.581-9.376-8.607-8-11.006z"/><path d="M348.655 331.04c1.026-1.543 9.03-1.075 13.2 1.413 4.381 2.615 8.28 9.554 6.712 11.128-1.401 1.406-7.672 2-12.664-1.027-4.794-2.907-8.781-9.213-7.248-11.515z"/><path d="M335.265 333.355c1.151-1.451 9.088-.322 13.037 2.504 4.15 2.97 7.46 10.207 5.767 11.646-1.513 1.285-7.812 1.357-12.535-2.074-4.537-3.295-7.987-9.909-6.269-12.076zM396.82 307.43c1.817.357 7.123-5.652 8.294-10.365 1.231-4.952-.947-12.607-3.169-12.603-1.985.004-6.824 4.036-8.192 9.712-1.314 5.45.352 12.722 3.066 13.255z"/><path d="M383.815 316.592c1.79.476 7.478-5.173 8.956-9.799 1.553-4.86-.118-12.642-2.336-12.783-1.98-.127-7.074 3.58-8.81 9.154-1.67 5.353-.483 12.717 2.19 13.428z"/><path d="M371.075 321.365c1.565.571 7.15-4.034 8.873-8.062 1.81-4.232.98-11.345-.995-11.65-1.766-.274-6.65 2.637-8.687 7.494-1.956 4.665-1.526 11.364.81 12.218z"/><path d="M360.53 325.85c1.534.417 6.494-4.428 7.821-8.408 1.395-4.183.053-10.896-1.852-11.028-1.701-.117-6.125 3.056-7.687 7.852-1.5 4.607-.57 10.96 1.719 11.583z"/><path d="M348.402 329.813c1.488.56 6.88-3.797 8.576-7.635 1.782-4.033 1.077-10.843-.807-11.153-1.683-.277-6.386 2.466-8.392 7.095-1.926 4.445-1.597 10.857.623 11.693z"/><path d="M334.838 332.452c1.374.799 7.415-2.603 9.724-6.107 2.426-3.682 2.86-10.514 1.054-11.132-1.614-.552-6.707 1.373-9.453 5.604-2.637 4.064-3.377 10.442-1.325 11.635zM409.381 296.14c1.757.175 6.256-6.006 6.947-10.584.726-4.811-2.025-11.879-4.133-11.674-1.884.183-6.116 4.446-6.908 9.956-.76 5.29 1.47 12.04 4.094 12.302z"/><path d="M420.167 284.068c1.613-.021 5.067-6.098 5.226-10.325.168-4.443-3.053-10.577-4.946-10.174-1.692.36-5.1 4.666-5.256 9.75-.149 4.883 2.567 10.782 4.976 10.75z"/><path d="M427.963 273.877c1.681.12 5.812-5.898 6.35-10.285.566-4.61-2.247-11.281-4.253-11.03-1.793.224-5.72 4.406-6.33 9.684-.585 5.07 1.722 11.451 4.233 11.631z"/></g><g fill="#ffd600" fill-rule="evenodd" stroke="#000"><path d="M415.044 256.108c-.978-1.573 2.762-8.664 6.754-11.428 4.195-2.906 12.126-3.58 12.909-1.501.7 1.858-1.358 7.811-6.18 11.101-4.633 3.16-12.023 4.177-13.483 1.828z"/><path d="M422.31 240.808c-1.032-1.538 2.458-8.755 6.351-11.658 4.091-3.05 11.993-4.002 12.848-1.951.765 1.832-1.083 7.854-5.788 11.31-4.518 3.32-11.869 4.595-13.41 2.299z"/><path d="M426.405 226.152c-1.087-1.5 2.145-8.837 5.933-11.875 3.98-3.194 11.844-4.425 12.771-2.406.829 1.804-.804 7.888-5.384 11.509-4.398 3.477-11.698 5.012-13.32 2.772z"/><path d="M429.488 212.401c-1.195-1.364 1.29-8.869 4.706-12.216 3.59-3.517 11.14-5.488 12.227-3.6.97 1.688-.07 7.809-4.204 11.804-3.971 3.836-10.946 6.05-12.73 4.012zM432.039 199.2c-1.687-.062-5.185-6.534-5.272-10.982-.092-4.674 3.391-11.043 5.364-10.574 1.763.42 5.245 5.03 5.313 10.379.064 5.136-2.887 11.27-5.405 11.178zM407.885 270.135c-.855-1.644 3.419-8.426 7.611-10.876 4.406-2.576 12.364-2.64 12.986-.506.555 1.905-1.953 7.683-7.014 10.594-4.86 2.795-12.307 3.242-13.583.788z"/><path d="M399.63 281.268c-.52-1.778 4.984-7.606 9.57-9.2 4.821-1.675 12.642-.199 12.84 2.014.176 1.977-3.402 7.162-8.93 9.039-5.31 1.802-12.702.801-13.48-1.853z"/><path d="M389.582 288.334c.161-1.845 7.408-5.274 12.26-5.09 5.1.192 11.849 4.41 11.228 6.543-.555 1.906-5.772 5.435-11.605 5.174-5.601-.251-12.124-3.871-11.883-6.627z"/><path d="M379.871 297.202c.284-1.83 7.743-4.768 12.572-4.261 5.076.532 11.528 5.19 10.767 7.278-.68 1.865-6.122 5.038-11.924 4.388-5.572-.624-11.839-4.671-11.415-7.405z"/><path d="M368.693 304.929c.435-1.8 8.112-4.11 12.883-3.205 5.013.952 11.058 6.13 10.125 8.146-.833 1.802-6.518 4.513-12.246 3.384-5.501-1.084-11.41-5.637-10.762-8.325zM413.661 255.543c1.8-.439 4.09-8.121 3.173-12.89-.963-5.011-6.156-11.043-8.17-10.106-1.8.838-4.497 6.53-3.355 12.255 1.098 5.498 5.665 11.397 8.352 10.741z"/><path d="M405.71 269.321c1.824-.32 4.613-7.836 4.01-12.654-.632-5.064-5.418-11.423-7.49-10.62-1.85.718-4.915 6.22-4.15 12.008.734 5.56 4.905 11.744 7.63 11.266z"/><path d="M396.153 279.004c1.66-.139 4.794-6.664 4.665-11.043-.135-4.601-3.876-10.707-5.798-10.155-1.717.494-4.926 5.188-4.734 10.45.185 5.056 3.39 10.955 5.867 10.748z"/><path d="M388.468 287.503c1.567-.265 4.033-6.745 3.565-10.914-.491-4.382-4.53-9.91-6.313-9.23-1.594.609-4.275 5.347-3.678 10.355.574 4.811 4.086 10.185 6.426 9.79z"/><path d="M379.127 296.196c1.585-.117 4.649-6.336 4.575-10.532-.077-4.408-3.578-10.292-5.418-9.782-1.644.456-4.759 4.921-4.635 9.964.12 4.843 3.112 10.524 5.478 10.35z"/><path d="M367.926 304.289c1.582.148 5.635-5.477 6.259-9.627.655-4.36-1.822-10.743-3.72-10.545-1.697.177-5.51 4.063-6.224 9.057-.686 4.796 1.322 10.894 3.685 11.115zM420.318 240.021c1.668-.579 3.153-8.079 1.857-12.523-1.362-4.67-6.827-9.929-8.654-8.858-1.633.957-3.683 6.604-2.087 11.937 1.533 5.121 6.393 10.309 8.884 9.444z"/><path d="M425.035 224.535c1.455-.697 2.036-7.662.405-11.566-1.715-4.102-7.214-8.315-8.764-7.154-1.384 1.037-2.667 6.377-.672 11.056 1.915 4.494 6.858 8.706 9.03 7.664z"/><path d="M427.828 212.012c1.576-.598 2.796-7.795 1.441-12.002-1.423-4.42-6.777-9.293-8.493-8.222-1.533.957-3.34 6.4-1.675 11.447 1.598 4.847 6.373 9.668 8.727 8.777z"/></g><g fill="none" stroke="#ffd600"><path d="M392.592 131.923c-4.631-15.84-12.259-30.186-22.115-42.271M397.078 124.94c-5.448-15.577-13.811-29.508-24.282-41.065M387.283 140.715c-3.53-16.12-10.152-30.958-19.153-43.693M406.435 127.067c-5.448-15.578-13.811-29.508-24.282-41.065"/></g><g fill="#ffd600" fill-rule="evenodd" stroke="#000"><path d="M403.631 183.285c-1.5-1.087-.717-9.065 1.934-13.134 2.786-4.275 9.873-7.897 11.384-6.268 1.35 1.456 1.696 7.745-1.526 12.614-3.094 4.676-9.552 8.41-11.792 6.788z"/><path d="M404.576 166.373c-1.537-1.034-1.033-9.034 1.474-13.193 2.634-4.37 9.59-8.238 11.157-6.662 1.4 1.407 1.966 7.68-1.084 12.659-2.928 4.78-9.251 8.74-11.547 7.196z"/><path d="M402.827 151.257c-1.573-.979-1.353-8.992 1.005-13.237 2.478-4.46 9.293-8.572 10.915-7.054 1.449 1.357 2.236 7.607-.635 12.69-2.758 4.882-8.936 9.062-11.285 7.6z"/><path d="M400.485 137.361c-1.622-.812-2.157-8.7-.26-13.089 1.994-4.613 8.24-9.291 9.959-7.954 1.537 1.196 2.887 7.256.569 12.517-2.227 5.053-7.847 9.739-10.268 8.526zM397.857 124.175c-1.585.58-7.27-4.09-9.032-8.175-1.851-4.292-1.034-11.506.97-11.817 1.79-.277 6.758 2.675 8.841 7.601 2.002 4.731 1.588 11.526-.779 12.391zM402.305 198.977c-1.412-1.198-.02-9.093 2.936-12.946 3.105-4.05 10.45-7.117 11.83-5.376 1.235 1.554 1.097 7.851-2.488 12.459-3.444 4.424-10.17 7.653-12.278 5.863z"/><path d="M398.87 212.404c-1.153-1.449 1.74-8.925 5.384-12.134 3.83-3.373 11.628-4.962 12.647-2.988.91 1.764-.442 7.916-4.85 11.743-4.235 3.675-11.457 5.543-13.18 3.38z"/><path d="M392.238 222.744c-.548-1.77 4.865-7.682 9.427-9.347 4.794-1.749 12.636-.395 12.868 1.815.207 1.975-3.29 7.214-8.788 9.176-5.281 1.884-12.688.998-13.507-1.644z"/><path d="M386.6 234.625c-.43-1.802 5.366-7.34 10.028-8.697 4.9-1.426 12.635.448 12.719 2.669.075 1.983-3.764 6.977-9.38 8.569-5.396 1.528-12.727.15-13.367-2.541z"/><path d="M379.171 246.003c-.278-1.832 5.957-6.87 10.716-7.836 5.001-1.014 12.554 1.495 12.453 3.715-.09 1.983-4.33 6.642-10.059 7.762-5.503 1.075-12.695-.907-13.11-3.641zM402.138 183.285c1.5-1.087.716-9.065-1.935-13.134-2.785-4.275-9.873-7.897-11.383-6.268-1.35 1.456-1.696 7.745 1.526 12.614 3.094 4.676 9.552 8.41 11.792 6.788z"/><path d="M399.983 199.046c1.568-.986 1.31-8.998-1.07-13.232-2.499-4.449-9.333-8.527-10.948-7-1.442 1.363-2.2 7.616.696 12.686 2.782 4.868 8.98 9.018 11.322 7.546z"/><path d="M394.796 211.622c1.484-.755 1.919-7.98.145-11.986-1.865-4.21-7.636-8.448-9.206-7.21-1.403 1.105-2.6 6.664-.433 11.464 2.081 4.61 7.278 8.86 9.494 7.732z"/><path d="M390.893 222.396c1.35-.838 1.184-7.769-.825-11.452-2.11-3.872-7.94-7.464-9.333-6.16-1.245 1.166-1.938 6.566.509 10.978 2.35 4.237 7.632 7.885 9.649 6.634z"/><path d="M385.53 233.974c1.423-.707 1.91-7.623.255-11.48-1.738-4.052-7.203-8.176-8.713-7.008-1.35 1.044-2.546 6.355-.525 10.977 1.941 4.439 6.858 8.567 8.983 7.511z"/><path d="M378.219 245.7c1.52-.46 3.147-7.2 2.156-11.278-1.042-4.284-5.747-9.258-7.43-8.356-1.504.805-3.565 5.844-2.339 10.737 1.178 4.7 5.342 9.586 7.613 8.897zM402.434 166.398c1.325-1.166-.134-8.671-3.014-12.296-3.026-3.81-10.073-6.612-11.36-4.93-1.15 1.504-.913 7.506 2.58 11.84 3.355 4.162 9.815 7.128 11.794 5.386z"/><path d="M400.948 150.278c1.083-1.196-1.011-7.864-3.997-10.861-3.137-3.15-9.822-4.972-10.817-3.312-.89 1.484-.059 6.912 3.556 10.49 3.472 3.437 9.64 5.469 11.258 3.683z"/><path d="M398.8 137.628c1.234-1.149-.357-8.273-3.2-11.656-2.99-3.555-9.788-6.043-10.972-4.403-1.057 1.466-.672 7.189 2.776 11.232 3.311 3.883 9.554 6.542 11.397 4.827z"/></g><g><g fill="none" stroke="#ffd600"><path d="M167.426 101.41c15.018-19.006 29.964-35.773 46.203-48.872M161.043 100.953c14.69-19.262 29.346-36.282 45.359-49.658M154.865 99.86c14.534-19.38 29.05-36.519 44.954-50.025M149.112 99.984c14.05-19.735 28.137-37.228 43.701-51.123M139.15 100.785c12.88-20.517 25.927-38.8 40.657-53.576M143.829 100.118c13.532-20.093 27.16-37.946 42.358-52.242"/></g><g fill="none" stroke="#ffd600"><path d="M152.466 217.11c-4.346-23.832-7.058-46.129-6.162-66.974M147.905 221.598c-4.754-23.754-7.847-46-7.31-66.858M143.003 225.513c-4.946-23.714-8.22-45.934-7.851-66.796M139.295 229.914c-5.532-23.584-9.356-45.717-9.504-66.581M133.315 237.921c-6.893-23.223-11.997-45.096-13.357-65.916M135.905 233.968c-6.143-23.433-10.54-45.458-11.23-66.311"/></g><g fill="#ffd600" fill-rule="evenodd" stroke="#000"><path d="M138.353 137.008c1.782-.505 3.79-8.265 2.7-12.997-1.146-4.973-6.556-10.811-8.535-9.8-1.768.902-4.255 6.688-2.904 12.368 1.298 5.455 6.077 11.183 8.739 10.43z"/><path d="M143.28 120.803c1.8-.442 4.078-8.128 3.154-12.895-.971-5.01-6.173-11.034-8.186-10.093-1.799.84-4.487 6.536-3.336 12.26 1.106 5.496 5.683 11.387 8.369 10.728z"/><path d="M150.121 107.21c1.814-.378 4.363-7.978 3.608-12.775-.793-5.041-5.778-11.245-7.823-10.377-1.828.776-4.716 6.373-3.768 12.134.91 5.532 5.275 11.582 7.983 11.018z"/><path d="M157.1 94.967c1.801-.205 5.016-7.427 4.744-12.201-.286-5.017-4.542-11.559-6.616-10.894-1.854.594-5.206 5.82-4.839 11.558.353 5.51 4.02 11.843 6.71 11.537zM164.1 83.49c1.29 1.089 8.233-1.342 11.293-4.572 3.215-3.394 4.928-10.448 3.153-11.43-1.586-.876-7.265.189-10.916 4.098-3.506 3.754-5.454 10.276-3.53 11.903zM134.201 152.2c1.739-.64 3.146-8.532 1.696-13.167-1.524-4.87-7.365-10.276-9.261-9.117-1.694 1.036-3.73 6.996-1.947 12.556 1.712 5.339 6.917 10.683 9.512 9.728z"/><path d="M132.809 165.989c1.582-.964 1.436-8.98-.882-13.246-2.437-4.484-9.213-8.658-10.849-7.155-1.461 1.344-2.307 7.585.517 12.695 2.712 4.908 8.852 9.145 11.214 7.706zM139.755 137.522c-1.035-1.537 2.444-8.759 6.332-11.668 4.087-3.056 11.987-4.02 12.845-1.97.768 1.83-1.07 7.855-5.77 11.319-4.514 3.326-11.862 4.613-13.407 2.319z"/><path d="M136.358 153.063c-1.133-1.466 1.865-8.9 5.554-12.058 3.877-3.318 11.697-4.797 12.688-2.809.886 1.777-.553 7.91-5.016 11.674-4.286 3.615-11.534 5.38-13.226 3.193z"/><path d="M136.904 166.656c-1.133-1.22.943-8.154 3.986-11.305 3.198-3.312 10.075-5.308 11.124-3.606.937 1.52.15 7.152-3.536 10.915-3.54 3.613-9.88 5.817-11.574 3.996zM145.283 121.563c-.843-1.551 3.108-8.097 7.059-10.51 4.151-2.537 11.733-2.745 12.363-.723.562 1.807-1.724 7.363-6.495 10.23-4.58 2.755-11.667 3.32-12.927 1.003z"/><path d="M152.222 106.937c-.606-1.495 3.654-7.036 7.488-8.824 4.03-1.88 10.933-1.292 11.297.61.325 1.699-2.322 6.51-6.947 8.627-4.442 2.033-10.933 1.82-11.838-.413z"/><path d="M158.589 95.797c-.764-1.503 3.18-7.646 7.014-9.845 4.03-2.31 11.269-2.308 11.816-.36.49 1.739-1.84 6.98-6.468 9.591-4.445 2.508-11.222 2.858-12.362.614z"/></g><g fill="none" stroke="#ffd600"><path d="M157.293 278.981c-13.78-19.923-25.439-39.12-33.213-58.483M154.987 284.95c-14.12-19.684-26.106-38.679-34.21-57.905M152.134 290.538c-14.278-19.57-26.419-38.466-34.68-57.626M150.57 296.075c-14.76-19.209-27.365-37.799-36.097-56.748M148.42 305.835c-15.85-18.319-29.514-36.145-39.333-54.554M149.151 301.166c-15.253-18.819-28.337-37.075-37.559-55.791"/></g><g fill="#ffd600" fill-rule="evenodd" stroke="#000"><path d="M171.248 308.523c.226-1.839-6.147-6.702-10.931-7.534-5.028-.874-12.507 1.846-12.345 4.061.146 1.98 4.514 6.519 10.272 7.478 5.531.921 12.665-1.26 13.004-4.005z"/><path d="M158.225 297.69c.291-1.829-5.908-6.911-10.66-7.91-4.994-1.05-12.564 1.407-12.479 3.627.076 1.983 4.282 6.672 10.004 7.832 5.495 1.114 12.7-.817 13.135-3.548z"/><path d="M148.353 286.11c.356-1.817-5.66-7.116-10.373-8.283-4.954-1.226-12.606.96-12.6 3.183.006 1.985 4.044 6.82 9.72 8.181 5.453 1.309 12.722-.366 13.253-3.08z"/><path d="M139.779 274.928c.51-1.74-4.898-7.506-9.403-9.109-4.735-1.683-12.415-.3-12.608 1.87-.172 1.939 3.344 7.057 8.774 8.945 5.215 1.813 12.475.893 13.237-1.706zM131.918 264.02c1.505-.765 1.96-8.107.17-12.18-1.88-4.281-7.716-8.598-9.309-7.343-1.423 1.122-2.647 6.769-.461 11.65 2.099 4.689 7.354 9.016 9.6 7.873zM183.637 318.245c.085-1.85-6.642-6.21-11.476-6.673-5.08-.486-12.33 2.8-11.997 4.996.297 1.963 5 6.153 10.815 6.668 5.585.494 12.53-2.228 12.658-4.991z"/><path d="M195.804 324.88c-.274-1.832-7.717-4.809-12.55-4.328-5.077.505-11.555 5.13-10.804 7.22.67 1.87 6.095 5.071 11.9 4.452 5.576-.595 11.864-4.608 11.454-7.344z"/><path d="M207.892 327.071c-.922-1.607-8.938-1.674-13.265.53-4.546 2.318-8.899 8.98-7.44 10.656 1.305 1.496 7.522 2.507 12.705-.18 4.977-2.581 9.376-8.607 8-11.006z"/><path d="M220.43 331.04c-1.027-1.543-9.03-1.075-13.2 1.413-4.382 2.615-8.28 9.554-6.712 11.128 1.4 1.406 7.671 2 12.663-1.027 4.795-2.907 8.782-9.213 7.249-11.515z"/><path d="M233.82 333.355c-1.152-1.451-9.088-.322-13.038 2.504-4.15 2.97-7.46 10.207-5.766 11.646 1.513 1.285 7.811 1.357 12.535-2.074 4.537-3.295 7.987-9.909 6.268-12.076zM172.265 307.43c-1.817.357-7.123-5.652-8.295-10.365-1.23-4.952.948-12.607 3.17-12.603 1.985.004 6.823 4.036 8.192 9.712 1.314 5.45-.353 12.722-3.067 13.255z"/><path d="M185.27 316.592c-1.79.476-7.479-5.173-8.957-9.799-1.553-4.86.119-12.642 2.336-12.783 1.981-.127 7.074 3.58 8.811 9.154 1.669 5.353.482 12.717-2.19 13.428z"/><path d="M198.009 321.365c-1.564.571-7.15-4.034-8.872-8.062-1.81-4.232-.98-11.345.995-11.65 1.765-.274 6.65 2.637 8.686 7.494 1.957 4.665 1.526 11.364-.81 12.218z"/><path d="M208.554 325.85c-1.534.417-6.494-4.428-7.82-8.408-1.396-4.183-.054-10.896 1.851-11.028 1.702-.117 6.126 3.056 7.688 7.852 1.5 4.607.57 10.96-1.72 11.583z"/><path d="M220.682 329.813c-1.487.56-6.88-3.797-8.576-7.635-1.782-4.033-1.076-10.843.807-11.153 1.684-.277 6.386 2.466 8.392 7.095 1.926 4.445 1.598 10.857-.623 11.693z"/><path d="M234.247 332.452c-1.374.799-7.415-2.603-9.724-6.107-2.426-3.682-2.86-10.514-1.054-11.132 1.614-.552 6.706 1.373 9.452 5.604 2.637 4.064 3.377 10.442 1.326 11.635zM159.703 296.14c-1.757.175-6.255-6.006-6.946-10.584-.727-4.811 2.024-11.879 4.133-11.674 1.883.183 6.116 4.446 6.907 9.956.76 5.29-1.47 12.04-4.094 12.302z"/><path d="M148.917 284.068c-1.613-.021-5.066-6.098-5.226-10.325-.167-4.443 3.053-10.577 4.947-10.174 1.692.36 5.1 4.666 5.255 9.75.15 4.883-2.567 10.782-4.976 10.75z"/><path d="M141.121 273.877c-1.681.12-5.811-5.898-6.35-10.285-.565-4.61 2.247-11.281 4.254-11.03 1.793.224 5.72 4.406 6.33 9.684.585 5.07-1.723 11.451-4.234 11.631z"/></g><g fill="#ffd600" fill-rule="evenodd" stroke="#000"><path d="M154.04 256.108c.979-1.573-2.762-8.664-6.754-11.428-4.195-2.906-12.125-3.58-12.908-1.501-.7 1.858 1.357 7.811 6.18 11.101 4.632 3.16 12.022 4.177 13.483 1.828z"/><path d="M146.774 240.808c1.032-1.538-2.458-8.755-6.35-11.658-4.092-3.05-11.994-4.002-12.849-1.951-.764 1.832 1.083 7.854 5.788 11.31 4.519 3.32 11.869 4.595 13.41 2.299z"/><path d="M142.68 226.152c1.086-1.5-2.146-8.837-5.934-11.875-3.98-3.194-11.843-4.425-12.77-2.406-.83 1.804.804 7.888 5.383 11.509 4.398 3.477 11.699 5.012 13.32 2.772z"/><path d="M139.597 212.401c1.194-1.364-1.291-8.869-4.707-12.216-3.59-3.517-11.14-5.488-12.227-3.6-.97 1.688.07 7.809 4.205 11.804 3.97 3.836 10.945 6.05 12.729 4.012zM137.046 199.2c1.686-.062 5.184-6.534 5.272-10.982.091-4.674-3.392-11.043-5.364-10.574-1.763.42-5.246 5.03-5.313 10.379-.065 5.136 2.886 11.27 5.405 11.178zM161.2 270.135c.854-1.644-3.42-8.426-7.612-10.876-4.405-2.576-12.364-2.64-12.985-.506-.555 1.905 1.952 7.683 7.013 10.594 4.861 2.795 12.308 3.242 13.584.788z"/><path d="M169.454 281.268c.52-1.778-4.983-7.606-9.57-9.2-4.82-1.675-12.642-.199-12.839 2.014-.176 1.977 3.401 7.162 8.93 9.039 5.309 1.802 12.701.801 13.479-1.853z"/><path d="M179.502 288.334c-.16-1.845-7.407-5.274-12.26-5.09-5.099.192-11.848 4.41-11.227 6.543.554 1.906 5.772 5.435 11.604 5.174 5.601-.251 12.124-3.871 11.883-6.627z"/><path d="M189.213 297.202c-.284-1.83-7.743-4.768-12.572-4.261-5.075.532-11.528 5.19-10.766 7.278.68 1.865 6.121 5.038 11.923 4.388 5.572-.624 11.84-4.671 11.415-7.405z"/><path d="M200.391 304.929c-.435-1.8-8.112-4.11-12.882-3.205-5.014.952-11.058 6.13-10.126 8.146.833 1.802 6.518 4.513 12.247 3.384 5.5-1.084 11.41-5.637 10.761-8.325zM155.423 255.543c-1.8-.439-4.09-8.121-3.173-12.89.964-5.011 6.156-11.043 8.17-10.106 1.8.838 4.498 6.53 3.355 12.255-1.098 5.498-5.665 11.397-8.352 10.741z"/><path d="M163.375 269.321c-1.824-.32-4.613-7.836-4.011-12.654.633-5.064 5.419-11.423 7.49-10.62 1.851.718 4.916 6.22 4.15 12.008-.734 5.56-4.904 11.744-7.629 11.266z"/><path d="M172.931 279.004c-1.66-.139-4.793-6.664-4.664-11.043.135-4.601 3.876-10.707 5.797-10.155 1.717.494 4.926 5.188 4.734 10.45-.184 5.056-3.389 10.955-5.867 10.748z"/><path d="M180.616 287.503c-1.567-.265-4.032-6.745-3.565-10.914.492-4.382 4.53-9.91 6.313-9.23 1.594.609 4.276 5.347 3.678 10.355-.574 4.811-4.086 10.185-6.426 9.79z"/><path d="M189.957 296.196c-1.585-.117-4.648-6.336-4.575-10.532.078-4.408 3.579-10.292 5.418-9.782 1.644.456 4.76 4.921 4.635 9.964-.12 4.843-3.111 10.524-5.478 10.35z"/><path d="M201.158 304.289c-1.582.148-5.635-5.477-6.258-9.627-.655-4.36 1.82-10.743 3.72-10.545 1.696.177 5.51 4.063 6.223 9.057.686 4.796-1.322 10.894-3.685 11.115zM148.767 240.021c-1.668-.579-3.154-8.079-1.858-12.523 1.362-4.67 6.827-9.929 8.655-8.858 1.632.957 3.682 6.604 2.086 11.937-1.533 5.121-6.393 10.309-8.883 9.444z"/><path d="M144.05 224.535c-1.455-.697-2.036-7.662-.405-11.566 1.714-4.102 7.214-8.315 8.763-7.154 1.384 1.037 2.667 6.377.673 11.056-1.916 4.494-6.859 8.706-9.031 7.664z"/><path d="M141.256 212.012c-1.576-.598-2.795-7.795-1.441-12.002 1.423-4.42 6.778-9.293 8.493-8.222 1.533.957 3.34 6.4 1.676 11.447-1.598 4.847-6.374 9.668-8.728 8.777z"/></g><g fill="none" stroke="#ffd600"><path d="M176.492 131.923c4.632-15.84 12.26-30.186 22.116-42.271M172.006 124.94c5.448-15.577 13.812-29.508 24.283-41.065M181.801 140.715c3.53-16.12 10.153-30.958 19.154-43.693M162.65 127.067c5.447-15.578 13.81-29.508 24.281-41.065"/></g><g fill="#ffd600" fill-rule="evenodd" stroke="#000"><path d="M165.453 183.285c1.5-1.087.717-9.065-1.934-13.134-2.786-4.275-9.873-7.897-11.384-6.268-1.35 1.456-1.695 7.745 1.527 12.614 3.094 4.676 9.551 8.41 11.791 6.788z"/><path d="M164.508 166.373c1.537-1.034 1.034-9.034-1.473-13.193-2.635-4.37-9.591-8.238-11.158-6.662-1.4 1.407-1.966 7.68 1.084 12.659 2.929 4.78 9.252 8.74 11.547 7.196z"/><path d="M166.257 151.257c1.573-.979 1.353-8.992-1.005-13.237-2.478-4.46-9.293-8.572-10.914-7.054-1.45 1.357-2.237 7.607.634 12.69 2.758 4.882 8.937 9.062 11.285 7.6z"/><path d="M168.6 137.361c1.621-.812 2.157-8.7.26-13.089-1.994-4.613-8.24-9.291-9.96-7.954-1.536 1.196-2.886 7.256-.568 12.517 2.226 5.053 7.846 9.739 10.268 8.526zM171.227 124.175c1.586.58 7.27-4.09 9.032-8.175 1.852-4.292 1.034-11.506-.97-11.817-1.79-.277-6.757 2.675-8.841 7.601-2.001 4.731-1.588 11.526.78 12.391zM166.78 198.977c1.412-1.198.019-9.093-2.936-12.946-3.106-4.05-10.45-7.117-11.831-5.376-1.235 1.554-1.097 7.851 2.489 12.459 3.444 4.424 10.169 7.653 12.277 5.863z"/><path d="M170.214 212.404c1.154-1.449-1.74-8.925-5.384-12.134-3.83-3.373-11.628-4.962-12.647-2.988-.91 1.764.442 7.916 4.85 11.743 4.235 3.675 11.457 5.543 13.18 3.38z"/><path d="M176.846 222.744c.548-1.77-4.865-7.682-9.426-9.347-4.794-1.749-12.637-.395-12.868 1.815-.207 1.975 3.29 7.214 8.788 9.176 5.28 1.884 12.688.998 13.506-1.644z"/><path d="M182.485 234.625c.429-1.802-5.366-7.34-10.03-8.697-4.899-1.426-12.634.448-12.717 2.669-.075 1.983 3.763 6.977 9.38 8.569 5.395 1.528 12.726.15 13.367-2.541z"/><path d="M189.913 246.003c.278-1.832-5.956-6.87-10.715-7.836-5.002-1.014-12.554 1.495-12.454 3.715.09 1.983 4.33 6.642 10.06 7.762 5.502 1.075 12.694-.907 13.11-3.641zM166.947 183.285c-1.5-1.087-.717-9.065 1.934-13.134 2.786-4.275 9.873-7.897 11.384-6.268 1.35 1.456 1.696 7.745-1.526 12.614-3.095 4.676-9.552 8.41-11.792 6.788z"/><path d="M169.101 199.046c-1.568-.986-1.31-8.998 1.07-13.232 2.5-4.449 9.334-8.527 10.948-7 1.443 1.363 2.2 7.616-.696 12.686-2.781 4.868-8.98 9.018-11.322 7.546z"/><path d="M174.289 211.622c-1.484-.755-1.92-7.98-.145-11.986 1.864-4.21 7.635-8.448 9.205-7.21 1.404 1.105 2.6 6.664.434 11.464-2.082 4.61-7.278 8.86-9.494 7.732z"/><path d="M178.191 222.396c-1.35-.838-1.184-7.769.825-11.452 2.111-3.872 7.94-7.464 9.333-6.16 1.246 1.166 1.938 6.566-.508 10.978-2.35 4.237-7.633 7.885-9.65 6.634z"/><path d="M183.554 233.974c-1.423-.707-1.909-7.623-.255-11.48 1.738-4.052 7.203-8.176 8.713-7.008 1.35 1.044 2.546 6.355.525 10.977-1.94 4.439-6.858 8.567-8.983 7.511z"/><path d="M190.866 245.7c-1.521-.46-3.148-7.2-2.156-11.278 1.041-4.284 5.746-9.258 7.43-8.356 1.503.805 3.564 5.844 2.338 10.737-1.178 4.7-5.341 9.586-7.612 8.897zM166.65 166.398c-1.325-1.166.134-8.671 3.014-12.296 3.026-3.81 10.074-6.612 11.36-4.93 1.15 1.504.914 7.506-2.58 11.84-3.354 4.162-9.815 7.128-11.794 5.386z"/><path d="M168.136 150.278c-1.083-1.196 1.011-7.864 3.997-10.861 3.138-3.15 9.822-4.972 10.817-3.312.89 1.484.06 6.912-3.556 10.49-3.472 3.437-9.64 5.469-11.258 3.683z"/><path d="M170.284 137.628c-1.234-1.149.357-8.273 3.201-11.656 2.989-3.555 9.788-6.043 10.971-4.403 1.058 1.466.673 7.189-2.775 11.232-3.312 3.883-9.555 6.542-11.397 4.827z"/></g></g></g><g fill-rule="evenodd" stroke="#000" stroke-width="2" stroke-linecap="round" stroke-linejoin="round"><path d="M229.577 227.329c-41.586 4.569-82.574 26.735-110.344 56.562a234.605 234.605 0 0 1 13.156 13.344 233.096 233.096 0 0 0-2.53-2.75c25.196-26.964 64.305-48.177 101.374-52.25l-1.656-14.906z"/><path d="M232.858 257.141c-32.879 3.613-70.523 24.314-93.031 48.719a195.844 195.844 0 0 1 9.156 12.25c19.43-22.08 56.459-42.868 85.531-46.063l-1.656-14.906z" fill="#090"/><path d="M231.233 242.235c-37.07 4.073-76.178 25.286-101.375 52.25 3.641 3.877 6.953 7.654 9.969 11.375 22.508-24.405 60.152-45.106 93.031-48.719l-1.625-14.906z" fill="#bf0000"/><g><path d="M339.508 227.329c41.586 4.569 82.573 26.735 110.343 56.562a234.605 234.605 0 0 0-13.156 13.344c.832-.915 1.662-1.825 2.531-2.75-25.196-26.964-64.305-48.177-101.375-52.25l1.657-14.906z"/><path d="M336.226 257.141c32.88 3.613 70.523 24.314 93.032 48.719a195.844 195.844 0 0 0-9.157 12.25c-19.43-22.08-56.458-42.868-85.53-46.063l1.655-14.906z" fill="#090"/><path d="M337.851 242.235c37.07 4.073 76.179 25.286 101.375 52.25-3.64 3.877-6.952 7.654-9.968 11.375-22.509-24.405-60.153-45.106-93.032-48.719l1.625-14.906z" fill="#bf0000"/></g></g><path transform="matrix(1.05286 0 0 1.00766 -20.416 631.97)" d="M386.195-460.76a96.549 111.01 0 1 1-193.098 0 96.549 111.01 0 1 1 193.098 0z" fill="#fff" stroke="#000" stroke-width="1.942" stroke-linecap="round" stroke-linejoin="round"/><g stroke="#ffd600" fill="none" stroke-width="2" stroke-linecap="round" stroke-linejoin="round"><path d="M203.982 120.739l161.12 93.032M207.193 135.212l154.698 64.085M212.658 147.99l143.768 38.529M201.536 156.323l166.013 21.863M191.517 167.25l186.05.008M201.535 178.18l166.014-21.85M212.657 186.513l143.77-38.517M207.19 199.291l154.704-64.073M203.978 213.764l161.129-93.019M218.118 218.22l132.848-101.93M231.917 219.876l105.25-105.242M233.572 233.675l101.94-132.84M238.026 247.815l93.032-161.121M252.5 244.603l64.085-154.697M265.278 239.139L303.807 95.37M273.61 250.261l21.864-166.013M284.538 260.28l.008-186.05M295.467 250.262l-21.85-166.015M303.8 239.14L265.285 95.37M316.579 244.606L252.506 89.903M331.052 247.82l-93.02-161.13M335.507 233.679L233.577 100.83M337.163 219.88L231.921 114.63M350.962 218.225l-132.84-101.94"/></g><path transform="matrix(1.02202 .00892 -.0107 1.22676 -11.765 745.085)" d="M342.812-473.094a57.844 41.256 0 1 1-115.689 0 57.844 41.256 0 1 1 115.689 0z" fill="#fff" stroke="#ffd600" stroke-width="1.786" stroke-linecap="round" stroke-linejoin="round"/><path d="M186.5 165.547c-.013.717-.031 1.436-.031 2.157 0 60.135 44.207 108.406 98.094 108.406 53.886 0 98.03-48.27 98.03-108.406 0-.72-.018-1.44-.03-2.157H186.5z" fill="#090"/><path d="M251.594 41.922a113.694 113.694 0 0 0-11.281 4.094l3.156 8.219a105.978 105.978 0 0 0-4.406 2l-4.563-7.563a116.78 116.78 0 0 0-10.5 5.813l4.563 7.594c-1.33.836-2.644 1.668-3.938 2.562l-5.844-6.719a122.053 122.053 0 0 0-9.5 7.375l5.844 6.719c-1.07.92-2.12 1.851-3.156 2.813l-7-5.688c-2.92 2.75-5.684 5.656-8.344 8.688l14.906 12.062c.872-.99 1.752-1.98 2.656-2.937.337-.355.66-.713 1-1.063.196-.202.397-.394.594-.594.65-.657 1.335-1.299 2-1.937.568-.547 1.14-1.094 1.719-1.625.032-.03.061-.064.094-.094l.375-.344c1.064-.964 2.15-1.896 3.25-2.812a103.44 103.44 0 0 1 1.906-1.563c.45-.357.889-.713 1.344-1.062.196-.15.396-.29.594-.438.594-.45 1.208-.908 1.812-1.343.06-.044.126-.082.188-.125.745-.536 1.49-1.049 2.25-1.563.011-.008.019-.023.03-.031a99.71 99.71 0 0 1 2.438-1.594c.123-.078.253-.141.375-.219a99.69 99.69 0 0 1 2.188-1.343c.314-.187.621-.38.937-.563.549-.318 1.102-.63 1.656-.937a97.94 97.94 0 0 1 2.625-1.407c.87-.447 1.742-.891 2.625-1.312.03-.014.065-.017.094-.031.928-.441 1.87-.87 2.813-1.282.76-.332 1.512-.657 2.281-.968.343-.14.687-.272 1.031-.407.748-.293 1.495-.569 2.25-.843.044-.016.082-.047.125-.063.902-.326 1.807-.607 2.719-.906.643-.21 1.29-.428 1.938-.625.185-.056.376-.101.562-.156.126-.038.249-.089.375-.125a92.97 92.97 0 0 1 26.156-3.75 93.022 93.022 0 0 1 26.188 3.75c.134.039.272.084.406.125a93.6 93.6 0 0 1 13.656 5.25c.169.08.332.169.5.25.736.354 1.462.721 2.188 1.093.458.236.92.476 1.375.719.136.072.27.146.406.219a98.124 98.124 0 0 1 2.75 1.531c.25.145.502.29.75.438.092.054.19.1.281.156.246.147.474.32.719.469a100.03 100.03 0 0 1 5.313 3.468 102.17 102.17 0 0 1 5.781 4.344c.04.033.084.06.125.094.584.476 1.144.98 1.719 1.469a104.95 104.95 0 0 1 3.625 3.218c.59.553 1.17 1.12 1.75 1.688.579.567 1.15 1.137 1.718 1.719l.031-.032a112.768 112.768 0 0 1 3.75 4.094l14.907-12.062c-2.66-3.032-5.425-5.938-8.344-8.688l-7 5.656a115.447 115.447 0 0 0-3.156-2.812l5.844-6.719a122.052 122.052 0 0 0-9.5-7.344l-5.844 6.719c-1.286-.887-2.617-1.732-3.938-2.562l4.563-7.625a117.242 117.242 0 0 0-10.5-5.813l-4.563 7.563a106.29 106.29 0 0 0-4.437-2l3.156-8.22a113.822 113.822 0 0 0-11.25-4.062l-3.156 8.219a103.928 103.928 0 0 0-29.781-4.344 103.91 103.91 0 0 0-29.813 4.344l-3.156-8.219z" fill="#ffd600" stroke="#000" stroke-width="2" stroke-linecap="round" stroke-linejoin="round"/><path transform="matrix(1.06492 0 0 -1.06503 5.534 -577.394)" d="M262-565.39l-6.494-19.984h-21.013l17-12.352L245-617.71l17 12.35 17-12.35-6.493 19.984 17 12.352h-21.013L262-565.39z" fill="#bf0000" stroke="#000" stroke-width="1.878" stroke-linecap="round" stroke-linejoin="round"/><g stroke="#ffd600" stroke-width="2" stroke-linecap="round" stroke-linejoin="round"><path d="M284.542 140.516c-11.22 8.437-24.062 38.443-24.062 58.344v33.094h48.125V198.86c0-19.901-12.842-49.907-24.063-58.344z" fill="#fff" fill-rule="evenodd"/><path d="M284.542 152.704c2.899 4.064 6.15 9.586 8.75 15.812 4.292 10.275 7.219 22.136 7.219 30.344v25h-31.938v-25c0-8.208 2.927-20.069 7.22-30.344 2.6-6.226 5.85-11.748 8.75-15.812z" fill="none"/><path d="M298.24 184.433h-10.226v12.03h-8.421v11.128h-10.827" fill="none"/></g><g fill="#f55" fill-rule="evenodd"><path d="M340.438 236.172c-5.977 0-11.461 9-17.438 9-7.641 0-15.231-7.812-24.063-7.812-9.773 0-16.218 8.437-16.218 8.437v74.563s12.49-7.813 25.25-7.813c16.445 0 26.873 11.438 39.094 11.438 10.938 0 19.843-4.813 19.843-4.813v-16.25l-18.625-62.562s-3.375-4.188-7.844-4.188z"/><path d="M282.705 245.786v58.346s12.503-7.82 25.263-7.82c16.445 0 26.877 11.429 39.097 11.429 10.94 0 19.85-4.812 19.85-4.812l-18.647-62.556s-3.35-4.21-7.819-4.21c-5.977 0-11.467 9.022-17.444 9.022-7.64 0-15.228-7.82-24.06-7.82-9.773 0-16.24 8.421-16.24 8.421z"/></g><g fill-rule="evenodd" stroke="#000" stroke-width="2" stroke-linecap="round" stroke-linejoin="round"><path d="M284.542 316.829c-40.628 0-76.13 11.227-97.094 22.25 4.482 3.48 8.838 7.502 12.875 11.843-.296-.32-.574-.653-.875-.968 18.933-8.681 50.976-18.125 85.094-18.125 34.118 0 66.162 9.444 85.094 18.125-.3.315-.578.649-.875.968 4.038-4.341 8.394-8.362 12.875-11.843-20.964-11.023-56.466-22.25-97.094-22.25z"/><path d="M284.542 346.829c-28.862 0-57.857 8.189-75.094 15.25 3.06 4.297 5.724 8.73 7.844 13.156 15.65-5.927 42.403-13.406 67.25-13.406s51.6 7.479 67.25 13.406c2.12-4.427 4.784-8.86 7.844-13.156-17.237-7.061-46.232-15.25-75.094-15.25z" fill="#090"/><path d="M284.542 331.829c-34.118 0-66.161 9.444-85.094 18.125a111.813 111.813 0 0 1 10 12.125c17.237-7.061 46.232-15.25 75.094-15.25 28.862 0 57.857 8.189 75.094 15.25a111.813 111.813 0 0 1 10-12.125c-18.932-8.681-50.976-18.125-85.094-18.125z" fill="#bf0000"/></g><g stroke="#ffd600" fill="#fff" fill-rule="evenodd" stroke-width="2"><path d="M217.984 253.016l-18.296 70.969h165.999l-18.296-70.969H217.984z"/><path d="M224.969 236.172c-4.469 0-7.844 4.188-7.844 4.188L198.5 302.922v16.25s8.905 4.813 19.844 4.813c12.22 0 22.649-11.438 39.094-11.438 12.76 0 25.25 7.813 25.25 7.813s12.49-7.813 25.25-7.813c16.445 0 26.873 11.438 39.093 11.438 10.939 0 19.844-4.813 19.844-4.813v-16.25L348.25 240.36s-3.375-4.188-7.844-4.188c-5.976 0-11.46 9-17.437 9-7.642 0-15.231-7.812-24.063-7.812-9.773 0-16.219 8.437-16.219 8.437s-6.445-8.437-16.218-8.437c-8.832 0-16.421 7.812-24.063 7.812-5.976 0-11.46-9-17.437-9z" stroke-linecap="round" stroke-linejoin="round"/><path d="M282.705 245.786v58.346s12.503-7.82 25.263-7.82c16.445 0 26.877 11.429 39.097 11.429 10.94 0 19.85-4.812 19.85-4.812l-18.647-62.556s-3.35-4.21-7.819-4.21c-5.977 0-11.467 9.022-17.444 9.022-7.64 0-15.228-7.82-24.06-7.82-9.773 0-16.24 8.421-16.24 8.421z" stroke-linecap="round" stroke-linejoin="round"/><path d="M282.705 245.786v58.346s-12.503-7.82-25.263-7.82c-16.445 0-26.877 11.429-39.098 11.429-10.938 0-19.849-4.812-19.849-4.812l18.646-62.556s3.351-4.21 7.82-4.21c5.977 0 11.467 9.022 17.443 9.022 7.642 0 15.23-7.82 24.06-7.82 9.773 0 16.241 8.421 16.241 8.421z" stroke-linecap="round" stroke-linejoin="round"/></g><path d="M133.25 297.36zM136.906 301.516z" opacity=".304" fill="#00f" fill-rule="evenodd"/></svg>