<svg xmlns="http://www.w3.org/2000/svg" width="1200" height="600">
  <rect x=".00004805" width="1200" height="600" fill="#8eb9e3"/>
  <rect y="299.99997" x=".00004805" height="300" width="1200" fill="#c83e34"/>
  <path d="M519.6152 299.99998L0 599.99998V-.00001701" fill="#fff"/>
  <path d="M30 51.961503l18.0604 15.60723 20.9107-11.51121-9.2624 21.99934 17.4096 16.33006-23.7849-2.0109-10.151 21.603727-5.4374-23.242127-23.6832-2.97821 20.4244-12.35355z" fill="#f7e670"/>
  <path d="M436.5825 268.29809l.4863 23.86474 22.5464 7.83715-22.5464 7.83714-.4863 23.86475-14.4208-19.02114-22.8471 6.91208 13.6339-19.59283-13.6339-19.59283 22.8471 6.91208z" fill="#f7e670"/>
  <path d="M43.1824 486.02021l10.151 21.60373 23.7849-2.0109-17.4096 16.33006 9.2624 21.99934-20.9107-11.51121L30 548.03844l4.4862-23.44436-20.4244-12.35353 23.6832-2.97821z" fill="#f7e670"/>
  <path d="M186.6667 173.33332l-7.79 7.78999 3.8633 59.00293c-1.3134.0846-2.6137.21198-3.9029.37998l-7.0933-53.84127-6.3571 6.35707 9.5713 48.1254c-7.8732 1.55786-15.1906 4.6506-21.6284 8.96167l-27.257-40.79451h-8.9934l33.06 43.0904c-1.0373.79747-2.042 1.63159-3.0241 2.49373l-38.9975-44.46793h-11.02v11.02001l44.4679 38.99753c-.8631.98332-1.6956 1.99346-2.4937 3.03206l-43.0904-33.06793v8.99334l40.8024 27.26498c-4.3099 6.43667-7.412 13.74921-8.9695 21.62047l-48.1255-9.57127-6.357 6.35707 53.8412 7.09335c-.168 1.2894-.2954 2.58972-.38 3.90293l-59.003-3.86334-7.79 7.79 7.79 7.79 59.003-3.86334c.085 1.31393.212 2.6214.38 3.9108l-53.8412 7.08548 6.357 6.35707 48.1255-9.57127c1.5576 7.87273 4.6499 15.18932 8.9616 21.62833l-40.7946 27.25706v8.99333l43.0905-33.05999c.7974 1.03774 1.6316 2.04167 2.4937 3.02419l-44.4679 38.99747v11.02h11.02l38.9975-44.46786c.9836.86366 1.9932 1.69473 3.032 2.49373l-33.0679 43.0904h8.9934l27.265-40.80247c6.435 4.31368 13.7483 7.41994 21.6204 8.97748l-9.5713 48.11753 6.3571 6.35706 7.0933-53.84127c1.2887.168 2.5895.29532 3.9029.37998l-3.8633 59.00293 7.79 7.79 7.79-7.79-3.8633-59.00293c1.3136-.0853 2.6137-.21198 3.9029-.37998l7.0933 53.84127 6.3571-6.35706-9.5712-48.12548c7.8731-1.55779 15.1905-4.65052 21.6283-8.96166l27.257 40.79459h8.9934l-33.06-43.09039c1.0373-.79747 2.0421-1.63159 3.0242-2.49373l38.9975 44.46786h11.02v-11.02l-44.4679-38.99747c.8631-.98332 1.6955-1.99346 2.4938-3.03206l43.0904 33.06786v-8.99333l-40.8026-27.26499c4.3099-6.4366 7.4122-13.74914 8.9696-21.6204l48.1255 9.57127 6.3571-6.35707-53.8414-7.09335c.168-1.28946.2953-2.58972.38-3.90293l59.003 3.86334 7.79-7.79-7.79-7.79-59.003 3.86334c-.084-1.31354-.2119-2.61374-.3799-3.90293l53.8413-7.09335-6.3571-6.35707-48.1254 9.57127c-1.5579-7.87312-4.6506-15.19059-8.9618-21.62833l40.7947-27.25713v-8.99333l-43.0904 33.06c-.7975-1.03727-1.6316-2.04201-2.4938-3.02413l44.4679-38.99753v-11.02001h-11.02l-38.9975 44.46793c-.9833-.86306-1.9934-1.69553-3.0321-2.49373l33.0679-43.0904h-8.9934l-27.2649 40.80247c-6.4367-4.30986-13.7492-7.41208-21.6204-8.96961l9.5712-48.1254-6.3571-6.35706-7.0933 53.84127c-1.2893-.168-2.5897-.29532-3.9029-.37998l3.8633-59.00293z" fill="#f7e670"/>
</svg>
